<?xml version="1.0" encoding="UTF-8"?>
<svg width="126px" height="126px" viewBox="0 0 126 126" version="1.1" xmlns="http://www.w3.org/2000/svg" xmlns:xlink="http://www.w3.org/1999/xlink">
    
    <title>R-Green</title>
    <g id="Page-1" stroke="none" stroke-width="1" fill="none" fill-rule="evenodd">
        <g id="R-Green" transform="translate(62.926754, 62.926754) rotate(9.000000) translate(-62.926754, -62.926754) translate(7.926754, 7.926754)" fill-rule="nonzero">
           
            <circle id="Oval" fill="#87E0C8" cx="55" cy="55" r="55"></circle>
            
            <g id="Group" transform="translate(27.000000, 23.000000)">
                <path d="M51.5,48 C48.1,45.2 44,40.45 44,20 C44,20 44,18.2 43.07,16 C41.61,12.51 37.81,8 28,8 C18.19,8 14.39,12.51 12.93,16 C12,18.2 12,20 12,20 C12,40.45 7.9,45.2 4.5,48 C2.07,50 0,51.01 0,56 L28,56 L56,56 C56,51.01 53.93,50 51.5,48 Z" id="Path" fill="#D7FCF9"></path>
                <path d="M28,56 L0,56 C0,51.01 2.07,50 4.5,48 C7.9,45.2 12,40.45 12,20 C12,20 12,18.2 12.93,16 C14.39,12.51 18.19,8 28,8 L28,56 Z" id="Path" fill="#FFFFFF"></path>
                <circle id="Oval" fill="#FFFFFF" cx="28" cy="4" r="4"></circle>
                <path d="M12.015,19.685 C12.085,18.685 12.379,17.304 12.93,16 L28,16 L28,20 L12,20 C12,20 12,19.888 12.015,19.685 Z" id="Path" fill="#D7FCF9"></path>
                <path d="M43.985,19.685 C43.915,18.685 43.621,17.304 43.07,16 L28,16 L28,20 L44,20 C44,20 44,19.888 43.985,19.685 Z" id="Path" fill="#AAF0E9"></path>
                <path d="M51.5,48 L28,48 L28,56 L56,56 C56,51.01 53.93,50 51.5,48 Z" id="Path" fill="#AAF0E9"></path>
                <path d="M4.5,48 L28,48 L28,56 L0,56 C0,51.01 2.07,50 4.5,48 Z" id="Path" fill="#D7FCF9"></path>
                <path d="M28,64 C32.418,64 36,60.419 36,56 L20,56 C20,60.419 23.582,64 28,64 Z" id="Path" fill="#009687"></path>
            </g>
        </g>
    </g>
</svg>